<mxfile host="app.diagrams.net" agent="Mozilla/5.0 (Windows NT 10.0; Win64; x64) AppleWebKit/537.36 (KHTML, like Gecko) Chrome/135.0.0.0 Safari/537.36 Edg/135.0.0.0" version="26.2.13">
  <diagram name="Страница — 1" id="oZTG1l7OPJgeqe0-thJH">
    <mxGraphModel dx="1421" dy="1965" grid="1" gridSize="10" guides="1" tooltips="1" connect="1" arrows="1" fold="1" page="1" pageScale="1" pageWidth="827" pageHeight="1169" math="0" shadow="0">
      <root>
        <mxCell id="0" />
        <mxCell id="1" parent="0" />
        <mxCell id="NAG_14O-He36evLbJbcK-1" value="Админ" style="shape=umlActor;verticalLabelPosition=bottom;verticalAlign=top;html=1;outlineConnect=0;fillColor=#fff2cc;strokeColor=#d6b656;" vertex="1" parent="1">
          <mxGeometry x="190" y="-20" width="30" height="60" as="geometry" />
        </mxCell>
        <mxCell id="NAG_14O-He36evLbJbcK-2" value="Менеджер" style="shape=umlActor;verticalLabelPosition=bottom;verticalAlign=top;html=1;outlineConnect=0;fillColor=#d5e8d4;strokeColor=#82b366;" vertex="1" parent="1">
          <mxGeometry x="685" y="-20" width="30" height="60" as="geometry" />
        </mxCell>
        <mxCell id="NAG_14O-He36evLbJbcK-3" value="Диспечер" style="shape=umlActor;verticalLabelPosition=bottom;verticalAlign=top;html=1;outlineConnect=0;fillColor=#f8cecc;strokeColor=#b85450;" vertex="1" parent="1">
          <mxGeometry x="190" y="380" width="30" height="60" as="geometry" />
        </mxCell>
        <mxCell id="NAG_14O-He36evLbJbcK-4" value="Водитель" style="shape=umlActor;verticalLabelPosition=bottom;verticalAlign=top;html=1;outlineConnect=0;fillColor=#dae8fc;strokeColor=#6c8ebf;" vertex="1" parent="1">
          <mxGeometry x="685" y="380" width="30" height="60" as="geometry" />
        </mxCell>
        <mxCell id="NAG_14O-He36evLbJbcK-7" value="Управление и создание заявок" style="shape=folder;fontStyle=1;tabWidth=80;tabHeight=30;tabPosition=left;html=1;boundedLbl=1;whiteSpace=wrap;fontSize=10;" vertex="1" parent="1">
          <mxGeometry x="320" y="120" width="120" height="80" as="geometry" />
        </mxCell>
        <mxCell id="NAG_14O-He36evLbJbcK-8" value="Администрирование&lt;div&gt;системы&lt;/div&gt;" style="shape=folder;fontStyle=1;tabWidth=80;tabHeight=30;tabPosition=left;html=1;boundedLbl=1;whiteSpace=wrap;fontSize=10;" vertex="1" parent="1">
          <mxGeometry x="480" y="120" width="120" height="80" as="geometry" />
        </mxCell>
        <mxCell id="NAG_14O-He36evLbJbcK-9" value="Управление работой" style="shape=folder;fontStyle=1;tabWidth=80;tabHeight=30;tabPosition=left;html=1;boundedLbl=1;whiteSpace=wrap;fontSize=10;" vertex="1" parent="1">
          <mxGeometry x="160" y="120" width="120" height="80" as="geometry" />
        </mxCell>
        <mxCell id="NAG_14O-He36evLbJbcK-12" value="" style="endArrow=none;html=1;rounded=0;entryX=0;entryY=0;entryDx=40;entryDy=0;entryPerimeter=0;exitX=0.5;exitY=0;exitDx=0;exitDy=0;exitPerimeter=0;fillColor=#d5e8d4;strokeColor=#82b366;" edge="1" parent="1" source="NAG_14O-He36evLbJbcK-2" target="NAG_14O-He36evLbJbcK-8">
          <mxGeometry width="50" height="50" relative="1" as="geometry">
            <mxPoint x="490" y="290" as="sourcePoint" />
            <mxPoint x="540" y="240" as="targetPoint" />
          </mxGeometry>
        </mxCell>
        <mxCell id="NAG_14O-He36evLbJbcK-13" value="" style="endArrow=none;html=1;rounded=0;entryX=0;entryY=0;entryDx=40;entryDy=0;entryPerimeter=0;exitX=0.5;exitY=0;exitDx=0;exitDy=0;exitPerimeter=0;fillColor=#fff2cc;strokeColor=#d6b656;" edge="1" parent="1" source="NAG_14O-He36evLbJbcK-1" target="NAG_14O-He36evLbJbcK-8">
          <mxGeometry width="50" height="50" relative="1" as="geometry">
            <mxPoint x="550" y="390" as="sourcePoint" />
            <mxPoint x="550" y="210" as="targetPoint" />
          </mxGeometry>
        </mxCell>
        <mxCell id="NAG_14O-He36evLbJbcK-14" value="" style="endArrow=none;html=1;rounded=0;entryX=0.5;entryY=1;entryDx=0;entryDy=0;entryPerimeter=0;exitX=0.5;exitY=0;exitDx=0;exitDy=0;exitPerimeter=0;fillColor=#f8cecc;strokeColor=#b85450;" edge="1" parent="1" source="NAG_14O-He36evLbJbcK-3" target="NAG_14O-He36evLbJbcK-7">
          <mxGeometry width="50" height="50" relative="1" as="geometry">
            <mxPoint x="380" y="585" as="sourcePoint" />
            <mxPoint x="540" y="405" as="targetPoint" />
          </mxGeometry>
        </mxCell>
        <mxCell id="NAG_14O-He36evLbJbcK-15" value="" style="endArrow=none;html=1;rounded=0;exitX=0.5;exitY=0;exitDx=0;exitDy=0;exitPerimeter=0;fillColor=#fff2cc;strokeColor=#d6b656;entryX=0;entryY=0;entryDx=40;entryDy=0;entryPerimeter=0;" edge="1" parent="1" source="NAG_14O-He36evLbJbcK-1" target="NAG_14O-He36evLbJbcK-7">
          <mxGeometry width="50" height="50" relative="1" as="geometry">
            <mxPoint x="70" y="390" as="sourcePoint" />
            <mxPoint x="380" y="200" as="targetPoint" />
          </mxGeometry>
        </mxCell>
        <mxCell id="NAG_14O-He36evLbJbcK-16" value="" style="endArrow=none;html=1;rounded=0;entryX=0;entryY=0;entryDx=40;entryDy=0;entryPerimeter=0;fillColor=#d5e8d4;strokeColor=#82b366;exitX=0.5;exitY=0;exitDx=0;exitDy=0;exitPerimeter=0;" edge="1" parent="1" source="NAG_14O-He36evLbJbcK-2" target="NAG_14O-He36evLbJbcK-7">
          <mxGeometry width="50" height="50" relative="1" as="geometry">
            <mxPoint x="540" y="380" as="sourcePoint" />
            <mxPoint x="390" y="210" as="targetPoint" />
          </mxGeometry>
        </mxCell>
        <mxCell id="NAG_14O-He36evLbJbcK-21" value="" style="endArrow=none;html=1;rounded=0;entryX=0;entryY=0;entryDx=40;entryDy=0;entryPerimeter=0;exitX=0.5;exitY=0;exitDx=0;exitDy=0;exitPerimeter=0;fillColor=#d5e8d4;strokeColor=#82b366;" edge="1" parent="1" source="NAG_14O-He36evLbJbcK-2" target="NAG_14O-He36evLbJbcK-9">
          <mxGeometry width="50" height="50" relative="1" as="geometry">
            <mxPoint x="550" y="390" as="sourcePoint" />
            <mxPoint x="230" y="210" as="targetPoint" />
          </mxGeometry>
        </mxCell>
        <mxCell id="NAG_14O-He36evLbJbcK-22" value="" style="endArrow=none;html=1;rounded=0;entryX=0;entryY=0;entryDx=40;entryDy=0;entryPerimeter=0;exitX=0.5;exitY=0;exitDx=0;exitDy=0;exitPerimeter=0;fillColor=#fff2cc;strokeColor=#d6b656;" edge="1" parent="1" source="NAG_14O-He36evLbJbcK-1" target="NAG_14O-He36evLbJbcK-9">
          <mxGeometry width="50" height="50" relative="1" as="geometry">
            <mxPoint x="550" y="390" as="sourcePoint" />
            <mxPoint x="70" y="210" as="targetPoint" />
          </mxGeometry>
        </mxCell>
        <mxCell id="NAG_14O-He36evLbJbcK-23" value="" style="endArrow=none;html=1;rounded=0;entryX=0.5;entryY=1;entryDx=0;entryDy=0;entryPerimeter=0;exitX=0.5;exitY=0;exitDx=0;exitDy=0;exitPerimeter=0;fillColor=#dae8fc;strokeColor=#6c8ebf;" edge="1" parent="1" source="NAG_14O-He36evLbJbcK-4" target="NAG_14O-He36evLbJbcK-9">
          <mxGeometry width="50" height="50" relative="1" as="geometry">
            <mxPoint x="390" y="390" as="sourcePoint" />
            <mxPoint x="70" y="210" as="targetPoint" />
          </mxGeometry>
        </mxCell>
        <mxCell id="NAG_14O-He36evLbJbcK-24" value="" style="endArrow=none;html=1;rounded=0;entryX=0.5;entryY=1;entryDx=0;entryDy=0;entryPerimeter=0;exitX=0.5;exitY=0;exitDx=0;exitDy=0;exitPerimeter=0;fillColor=#f8cecc;strokeColor=#b85450;" edge="1" parent="1" source="NAG_14O-He36evLbJbcK-3" target="NAG_14O-He36evLbJbcK-9">
          <mxGeometry width="50" height="50" relative="1" as="geometry">
            <mxPoint x="230" y="390" as="sourcePoint" />
            <mxPoint x="70" y="210" as="targetPoint" />
          </mxGeometry>
        </mxCell>
        <mxCell id="NAG_14O-He36evLbJbcK-25" value="Авторизация" style="shape=folder;fontStyle=1;tabWidth=80;tabHeight=30;tabPosition=left;html=1;boundedLbl=1;whiteSpace=wrap;fontSize=10;" vertex="1" parent="1">
          <mxGeometry x="640" y="120" width="120" height="80" as="geometry" />
        </mxCell>
        <mxCell id="NAG_14O-He36evLbJbcK-26" value="" style="endArrow=none;html=1;rounded=0;fillColor=#dae8fc;strokeColor=#6c8ebf;exitX=0.5;exitY=0;exitDx=0;exitDy=0;exitPerimeter=0;" edge="1" parent="1" source="NAG_14O-He36evLbJbcK-4">
          <mxGeometry width="50" height="50" relative="1" as="geometry">
            <mxPoint x="540" y="380" as="sourcePoint" />
            <mxPoint x="700" y="200" as="targetPoint" />
          </mxGeometry>
        </mxCell>
        <mxCell id="NAG_14O-He36evLbJbcK-27" value="" style="endArrow=none;html=1;rounded=0;exitX=0.5;exitY=0;exitDx=0;exitDy=0;exitPerimeter=0;fillColor=#f8cecc;strokeColor=#b85450;" edge="1" parent="1" source="NAG_14O-He36evLbJbcK-3">
          <mxGeometry width="50" height="50" relative="1" as="geometry">
            <mxPoint x="70" y="390" as="sourcePoint" />
            <mxPoint x="700" y="200" as="targetPoint" />
          </mxGeometry>
        </mxCell>
        <mxCell id="NAG_14O-He36evLbJbcK-28" value="" style="endArrow=none;html=1;rounded=0;entryX=0;entryY=0;entryDx=40;entryDy=0;entryPerimeter=0;exitX=0.5;exitY=0;exitDx=0;exitDy=0;exitPerimeter=0;fillColor=#fff2cc;strokeColor=#d6b656;" edge="1" parent="1" source="NAG_14O-He36evLbJbcK-1" target="NAG_14O-He36evLbJbcK-25">
          <mxGeometry width="50" height="50" relative="1" as="geometry">
            <mxPoint x="70" y="-10" as="sourcePoint" />
            <mxPoint x="530" y="130" as="targetPoint" />
          </mxGeometry>
        </mxCell>
        <mxCell id="NAG_14O-He36evLbJbcK-29" value="" style="endArrow=none;html=1;rounded=0;fillColor=#d5e8d4;strokeColor=#82b366;" edge="1" parent="1">
          <mxGeometry width="50" height="50" relative="1" as="geometry">
            <mxPoint x="700" y="-20" as="sourcePoint" />
            <mxPoint x="680" y="120" as="targetPoint" />
          </mxGeometry>
        </mxCell>
      </root>
    </mxGraphModel>
  </diagram>
</mxfile>
